# xmcd
# 
# Track frame offsets:
#     150
#     12515
#     23583
#     36763
#     49511
#     60278
#     74653
#     93040
#     126483
#     140991
#     163044
#     196652
#     212605
# 
# Disc length: 3163
# 
# Revision: 1
# Processed by: cddbd v1.5.2PL0 Copyright (c) Steve Scherf et al.
# Submitted via: fre:ac v1.0.31
# 
DISCID=b10c590d
DTITLE=Original Soundtrack - Muscle Shoals Original Motion Picture Soundtrack
DYEAR=2013
DGENRE=Soundtrack
TTITLE0=Arthur Alexander - You Better Move On
TTITLE1=Jimmy Hughes - Steal Away
TTITLE2=Percy Sledge - When A Man Loves A Woman
TTITLE3=Aretha Franklin - I Never Loved A Man (The Way I Love You)
TTITLE4=Etta James - Tell Mama
TTITLE5=Clarence Carter - Patches
TTITLE6=Wilson Pickett - Hey Jude
TTITLE7=Lynyrd Skynyrd - Free Bird
TTITLE8=The Staple Singers - I'll Take You There
TTITLE9=Jimmy Cliff - Sitting In Limbo
TTITLE10=Traffic - (Sometimes I Feel So) Uninspired
TTITLE11=Paul Simon - Kodachrome
TTITLE12=Alicia Keys - Pressing On
EXTD=
EXTT0=
EXTT1=
EXTT2=
EXTT3=
EXTT4=
EXTT5=
EXTT6=
EXTT7=
EXTT8=
EXTT9=
EXTT10=
EXTT11=
EXTT12=
PLAYORDER=
